<svg xmlns="http://www.w3.org/2000/svg" width="22" height="22.3606557761492" style=""><rect id="backgroundrect" width="100%" height="100%" x="0" y="0" fill="none" stroke="none" style="" class=""/><g class="currentLayer" style=""><title>Layer 1</title><g data-name="Layer 2" id="svg_1" class="" fill="#ffffff" fill-opacity="1"><g data-name="volume-off" id="svg_2" fill="#ffffff" fill-opacity="1"><path d="m15.13168269967559,14.08 l1.279046077336152,1.44 a5.329358655567301,6 0 0 0 -0.062175850981618604,-7.15 a0.8882264425945504,1 0 1 0 -1.3856332504474986,1.26 a3.5529057703782003,4 0 0 1 0.16876302409296473,4.45 z" id="svg_3" fill="#ffffff" fill-opacity="1"/><path d="M18.7645288498873,12 a5.78235414129052,6.51 0 0 1 -1.581043067818299,4.39 l1.2612815484842612,1.42 A7.576571555331514,8.53 0 0 0 20.540981735076404,12 a7.771981372702314,8.75 0 0 0 -2.984440847117688,-6.77 a0.8882264425945504,1 0 1 0 -1.136929846521024,1.54 A6.039939809642941,6.8 0 0 1 18.7645288498873,12 zm-5.329358655567301,0.17 V4 a0.8882264425945504,1 0 0 0 -1.3945155148734443,-0.8300000000000006 L8.1058115387527,6.2 zM4.321966893299917,7.57 H1.888226440590848 a0.8882264425945504,1 0 0 0 -0.8882264425945504,1 v6.86 a0.8882264425945504,1 0 0 0 0.8882264425945504,1 h4.441132212972751 l5.693531497031064,4.4 A0.9415200291502231,1.06 0 0 0 12.546943751725449,21 a0.8882264425945504,1 0 0 0 0.8882264425945504,-1 v-2.17 zm-0.026646793277836527,-4.28 a0.8882264425945504,1 0 0 0 -1.2612815484842612,1.42 l14.211623081512801,16 a0.8882264425945504,1 0 0 0 1.2612815484842612,0 a0.8882264425945504,1 0 0 0 0,-1.42 z" id="svg_4" fill="#ffffff" fill-opacity="1"/></g></g></g></svg>