<svg xmlns="http://www.w3.org/2000/svg" xmlns:xlink="http://www.w3.org/1999/xlink" version="1.1" width="792" height="792" style="enable-background:new 0 0 792 792;" xml:space="preserve"><rect id="backgroundrect" width="100%" height="100%" x="0" y="0" fill="none" stroke="none"/>
















<g class="currentLayer" style=""><title>Layer 1</title><g id="svg_1" class="selected" fill="#ffffff" fill-opacity="1">
	<g id="_x38__12_" fill="#ffffff" fill-opacity="1">
		<g id="svg_2" fill="#ffffff" fill-opacity="1">
			<path d="M282.856,0H169.714c-31.228,0-56.571,25.344-56.571,56.571v678.857c0,31.228,25.344,56.571,56.571,56.571h113.143     c31.256,0,56.572-25.315,56.572-56.571V56.571C339.428,25.344,314.112,0,282.856,0z M622.285,0H509.143     c-31.256,0-56.572,25.344-56.572,56.571v678.857c0,31.228,25.316,56.571,56.572,56.571h113.143     c31.256,0,56.572-25.315,56.572-56.571V56.571C678.857,25.344,653.541,0,622.285,0z" id="svg_3" fill="#ffffff" fill-opacity="1"/>
		</g>
	</g>
</g><g id="svg_4">
</g><g id="svg_5">
</g><g id="svg_6">
</g><g id="svg_7">
</g><g id="svg_8">
</g><g id="svg_9">
</g><g id="svg_10">
</g><g id="svg_11">
</g><g id="svg_12">
</g><g id="svg_13">
</g><g id="svg_14">
</g><g id="svg_15">
</g><g id="svg_16">
</g><g id="svg_17">
</g><g id="svg_18">
</g></g></svg>