<svg xmlns="http://www.w3.org/2000/svg" xmlns:xlink="http://www.w3.org/1999/xlink" version="1.1" enable-background="new 0 0 191.414 191.414" width="191.414" height="191.414" style=""><rect id="backgroundrect" width="100%" height="100%" x="0" y="0" fill="none" stroke="none"/>
  
<g class="currentLayer" style=""><title>Layer 1</title><g id="svg_1" class="selected" fill="#939393" fill-opacity="1">
    <path d="M107.888,96.142l80.916-80.916c3.48-3.48,3.48-8.701,0-12.181s-8.701-3.48-12.181,0L95.707,83.961L14.791,3.045   c-3.48-3.48-8.701-3.48-12.181,0s-3.48,8.701,0,12.181l80.915,80.916L2.61,177.057c-3.48,3.48-3.48,8.701,0,12.181   c1.74,1.74,5.22,1.74,6.96,1.74s5.22,0,5.22-1.74l80.916-80.916l80.916,80.916c1.74,1.74,5.22,1.74,6.96,1.74   c1.74,0,5.22,0,5.22-1.74c3.48-3.48,3.48-8.701,0-12.181L107.888,96.142z" id="svg_2" fill="#939393" fill-opacity="1"/>
  </g></g></svg>