<?xml version="1.0" encoding="UTF-8"?>
<svg xmlns="http://www.w3.org/2000/svg" xmlns:xlink="http://www.w3.org/1999/xlink" viewBox="0 0 34 34" width="34px" height="34px">
<g id="surface40452612">
<path style=" stroke:none;fill-rule:nonzero;fill:rgb(100%,100%,100%);fill-opacity:1;" d="M 15.441406 2.976562 C 8.925781 3.683594 3.683594 8.925781 2.976562 15.300781 C 2.265625 21.957031 6.089844 27.910156 11.898438 30.175781 C 12.324219 30.316406 12.75 30.035156 12.75 29.464844 L 12.75 27.199219 C 12.75 27.199219 12.183594 27.339844 11.476562 27.339844 C 9.492188 27.339844 8.640625 25.640625 8.5 24.648438 C 8.359375 24.082031 8.074219 23.660156 7.648438 23.234375 C 7.226562 23.089844 7.082031 23.089844 7.082031 22.949219 C 7.082031 22.667969 7.507812 22.667969 7.648438 22.667969 C 8.5 22.667969 9.207031 23.660156 9.492188 24.082031 C 10.199219 25.214844 11.050781 25.5 11.476562 25.5 C 12.042969 25.5 12.464844 25.359375 12.75 25.214844 C 12.890625 24.226562 13.316406 23.234375 14.167969 22.667969 C 10.910156 21.957031 8.5 20.117188 8.5 17 C 8.5 15.441406 9.207031 13.882812 10.199219 12.75 C 10.058594 12.464844 9.917969 11.757812 9.917969 10.765625 C 9.917969 10.199219 9.917969 9.492188 10.199219 8.925781 C 10.199219 8.640625 10.484375 8.5 10.625 8.5 L 10.765625 8.5 C 11.476562 8.640625 12.890625 9.066406 14.167969 10.339844 C 15.015625 10.058594 16.007812 9.917969 17 9.917969 C 17.992188 9.917969 18.984375 10.058594 19.832031 10.339844 C 21.109375 9.066406 22.667969 8.640625 23.375 8.5 L 23.515625 8.5 C 23.800781 8.5 23.941406 8.640625 24.082031 8.925781 C 24.082031 9.492188 24.082031 10.199219 24.082031 10.765625 C 24.082031 11.898438 23.941406 12.464844 23.800781 12.75 C 24.792969 13.882812 25.5 15.300781 25.5 17 C 25.5 20.117188 23.089844 21.957031 19.832031 22.667969 C 20.683594 23.375 21.25 24.648438 21.25 25.925781 L 21.25 29.609375 C 21.25 30.035156 21.675781 30.457031 22.242188 30.316406 C 27.484375 28.191406 31.167969 23.089844 31.167969 17.140625 C 31.167969 8.640625 23.941406 1.984375 15.441406 2.976562 Z M 15.441406 2.976562 "/>
</g>
</svg>
