<svg xmlns="http://www.w3.org/2000/svg" width="256" height="256"><rect id="backgroundrect" width="100%" height="100%" x="0" y="0" fill="none" stroke="none"/>
  
<g class="currentLayer" style=""><title>Layer 1</title><path d="M32,128a8.00008,8.00008,0,0,1,8-8H160a8,8,0,0,1,0,16H40A8.00008,8.00008,0,0,1,32,128Zm8-56H216a8,8,0,0,0,0-16H40a8,8,0,0,0,0,16Zm202.29883,44.3374-40-12A7.99991,7.99991,0,0,0,192,112v52.30518A31.98859,31.98859,0,1,0,208,192V122.75244l29.70117,8.91016a8,8,0,1,0,4.59766-15.3252ZM112,184H40a8,8,0,0,0,0,16h72a8,8,0,0,0,0-16Z" id="svg_1" class="selected" fill="#ffffff" fill-opacity="1"/></g></svg>