<svg xmlns="http://www.w3.org/2000/svg" width="21.63934422385079" height="20.360655776149194"><rect id="backgroundrect" width="100%" height="100%" x="0" y="0" fill="none" stroke="none" style="" class=""/><g class="currentLayer" style=""><title>Layer 1</title><g data-name="Layer 2" id="svg_1" class="selected" fill="#ffffff" fill-opacity="1"><g data-name="volume-up" id="svg_2" fill="#ffffff" fill-opacity="1"><path d="M15.70473945617676,6.730655784606933 a0.850968718528748,1 0 1 0 -1.3275112009048464,1.26 a3.4038748741149902,4 0 0 1 0,4.74 A0.850968718528748,1 0 0 0 15.040983855724335,14.360655784606934 a0.850968718528748,1 0 0 0 0.663755600452424,-0.3700000000000003 a5.105812311172485,6 0 0 0 0,-7.26 z" id="svg_3" fill="#ffffff" fill-opacity="1"/><path d="M16.862056913375856,3.590655784606934 a0.850968718528748,1 0 1 0 -1.089239959716797,1.54 A5.786587285995483,6.8 0 0 1 18.01937437057495,10.360655784606934 a5.786587285995483,6.8 0 0 1 -2.2465574169158935,5.23 a0.850968718528748,1 0 0 0 -0.11062593340873725,1.4100000000000001 A0.850968718528748,1 0 0 0 16.317436933517456,17.360655784606934 a0.850968718528748,1 0 0 0 0.5446199798583986,-0.23 A7.445976287126541,8.75 0 0 0 19.721311807632446,10.360655784606934 a7.445976287126541,8.75 0 0 0 -2.8592548942565923,-6.77 zm-4.399508274793625,-2.11 a0.850968718528748,1 0 0 0 -0.850968718528748,0 L6.105812311172485,5.930655784606934 H1.8509687185287476 a0.850968718528748,1 0 0 0 -0.850968718528748,1 v6.86 a0.850968718528748,1 0 0 0 0.850968718528748,1 h4.254843592643738 l5.454709485769272,4.4 A0.9020268416404726,1.06 0 0 0 12.062593340873718,19.360655784606934 a0.850968718528748,1 0 0 0 0.850968718528748,-1 V2.3606557846069336 a0.850968718528748,1 0 0 0 -0.4510134208202362,-0.8800000000000006 z" id="svg_4" fill="#ffffff" fill-opacity="1"/></g></g></g></svg>